<mxfile host="app.diagrams.net" modified="2023-11-21T16:55:41.766Z" agent="Mozilla/5.0 (Windows NT 10.0; Win64; x64) AppleWebKit/537.36 (KHTML, like Gecko) Chrome/119.0.0.0 Safari/537.36" etag="_t5JvUAB67DZQXECUJXD" version="22.1.3" type="device">
  <diagram name="Страница — 1" id="_FcOKA0Y2jNUbuUuPRiH">
    <mxGraphModel dx="3033" dy="2335" grid="1" gridSize="10" guides="1" tooltips="1" connect="1" arrows="1" fold="1" page="1" pageScale="1" pageWidth="827" pageHeight="1169" math="0" shadow="0">
      <root>
        <mxCell id="0" />
        <mxCell id="1" parent="0" />
        <mxCell id="wZIgyZx5I7DeYKoyVxKW-6" value="&lt;b&gt;IState&lt;/b&gt;" style="swimlane;fontStyle=0;childLayout=stackLayout;horizontal=1;startSize=26;fillColor=none;horizontalStack=0;resizeParent=1;resizeParentMax=0;resizeLast=0;collapsible=1;marginBottom=0;whiteSpace=wrap;html=1;" vertex="1" parent="1">
          <mxGeometry x="50" y="290" width="140" height="130" as="geometry" />
        </mxCell>
        <mxCell id="wZIgyZx5I7DeYKoyVxKW-7" value="+ void InsertQuarter()" style="text;strokeColor=none;fillColor=none;align=left;verticalAlign=top;spacingLeft=4;spacingRight=4;overflow=hidden;rotatable=0;points=[[0,0.5],[1,0.5]];portConstraint=eastwest;whiteSpace=wrap;html=1;" vertex="1" parent="wZIgyZx5I7DeYKoyVxKW-6">
          <mxGeometry y="26" width="140" height="26" as="geometry" />
        </mxCell>
        <mxCell id="wZIgyZx5I7DeYKoyVxKW-8" value="+ void EjectQuarter()" style="text;strokeColor=none;fillColor=none;align=left;verticalAlign=top;spacingLeft=4;spacingRight=4;overflow=hidden;rotatable=0;points=[[0,0.5],[1,0.5]];portConstraint=eastwest;whiteSpace=wrap;html=1;" vertex="1" parent="wZIgyZx5I7DeYKoyVxKW-6">
          <mxGeometry y="52" width="140" height="26" as="geometry" />
        </mxCell>
        <mxCell id="wZIgyZx5I7DeYKoyVxKW-9" value="+ void TurnCrank()" style="text;strokeColor=none;fillColor=none;align=left;verticalAlign=top;spacingLeft=4;spacingRight=4;overflow=hidden;rotatable=0;points=[[0,0.5],[1,0.5]];portConstraint=eastwest;whiteSpace=wrap;html=1;" vertex="1" parent="wZIgyZx5I7DeYKoyVxKW-6">
          <mxGeometry y="78" width="140" height="26" as="geometry" />
        </mxCell>
        <mxCell id="wZIgyZx5I7DeYKoyVxKW-14" value="+ void Dispense()" style="text;strokeColor=none;fillColor=none;align=left;verticalAlign=top;spacingLeft=4;spacingRight=4;overflow=hidden;rotatable=0;points=[[0,0.5],[1,0.5]];portConstraint=eastwest;whiteSpace=wrap;html=1;" vertex="1" parent="wZIgyZx5I7DeYKoyVxKW-6">
          <mxGeometry y="104" width="140" height="26" as="geometry" />
        </mxCell>
        <mxCell id="wZIgyZx5I7DeYKoyVxKW-15" value="HasQuarterState" style="swimlane;fontStyle=1;align=center;verticalAlign=top;childLayout=stackLayout;horizontal=1;startSize=26;horizontalStack=0;resizeParent=1;resizeParentMax=0;resizeLast=0;collapsible=1;marginBottom=0;whiteSpace=wrap;html=1;" vertex="1" parent="1">
          <mxGeometry x="-240" y="710" width="160" height="34" as="geometry" />
        </mxCell>
        <mxCell id="wZIgyZx5I7DeYKoyVxKW-19" value="NoQuarterState" style="swimlane;fontStyle=1;align=center;verticalAlign=top;childLayout=stackLayout;horizontal=1;startSize=26;horizontalStack=0;resizeParent=1;resizeParentMax=0;resizeLast=0;collapsible=1;marginBottom=0;whiteSpace=wrap;html=1;" vertex="1" parent="1">
          <mxGeometry x="-30" y="670" width="160" height="34" as="geometry" />
        </mxCell>
        <mxCell id="wZIgyZx5I7DeYKoyVxKW-20" value="SoldState" style="swimlane;fontStyle=1;align=center;verticalAlign=top;childLayout=stackLayout;horizontal=1;startSize=26;horizontalStack=0;resizeParent=1;resizeParentMax=0;resizeLast=0;collapsible=1;marginBottom=0;whiteSpace=wrap;html=1;" vertex="1" parent="1">
          <mxGeometry x="164" y="620" width="160" height="34" as="geometry" />
        </mxCell>
        <mxCell id="wZIgyZx5I7DeYKoyVxKW-21" value="SoldOutState" style="swimlane;fontStyle=1;align=center;verticalAlign=top;childLayout=stackLayout;horizontal=1;startSize=26;horizontalStack=0;resizeParent=1;resizeParentMax=0;resizeLast=0;collapsible=1;marginBottom=0;whiteSpace=wrap;html=1;" vertex="1" parent="1">
          <mxGeometry x="350" y="551" width="160" height="34" as="geometry" />
        </mxCell>
        <mxCell id="wZIgyZx5I7DeYKoyVxKW-22" value="" style="endArrow=block;dashed=1;endFill=0;endSize=12;html=1;rounded=0;" edge="1" parent="1" source="wZIgyZx5I7DeYKoyVxKW-15" target="wZIgyZx5I7DeYKoyVxKW-6">
          <mxGeometry width="160" relative="1" as="geometry">
            <mxPoint x="230" y="460" as="sourcePoint" />
            <mxPoint x="390" y="460" as="targetPoint" />
          </mxGeometry>
        </mxCell>
        <mxCell id="wZIgyZx5I7DeYKoyVxKW-23" value="" style="endArrow=block;dashed=1;endFill=0;endSize=12;html=1;rounded=0;" edge="1" parent="1" source="wZIgyZx5I7DeYKoyVxKW-19" target="wZIgyZx5I7DeYKoyVxKW-6">
          <mxGeometry width="160" relative="1" as="geometry">
            <mxPoint x="78" y="490" as="sourcePoint" />
            <mxPoint x="200" y="417" as="targetPoint" />
          </mxGeometry>
        </mxCell>
        <mxCell id="wZIgyZx5I7DeYKoyVxKW-24" value="" style="endArrow=block;dashed=1;endFill=0;endSize=12;html=1;rounded=0;" edge="1" parent="1" source="wZIgyZx5I7DeYKoyVxKW-20" target="wZIgyZx5I7DeYKoyVxKW-6">
          <mxGeometry width="160" relative="1" as="geometry">
            <mxPoint x="88" y="500" as="sourcePoint" />
            <mxPoint x="210" y="427" as="targetPoint" />
          </mxGeometry>
        </mxCell>
        <mxCell id="wZIgyZx5I7DeYKoyVxKW-25" value="" style="endArrow=block;dashed=1;endFill=0;endSize=12;html=1;rounded=0;" edge="1" parent="1" source="wZIgyZx5I7DeYKoyVxKW-21" target="wZIgyZx5I7DeYKoyVxKW-6">
          <mxGeometry width="160" relative="1" as="geometry">
            <mxPoint x="98" y="510" as="sourcePoint" />
            <mxPoint x="220" y="437" as="targetPoint" />
          </mxGeometry>
        </mxCell>
        <mxCell id="wZIgyZx5I7DeYKoyVxKW-30" value="&lt;b&gt;GumbalMachine&lt;/b&gt;" style="swimlane;fontStyle=0;childLayout=stackLayout;horizontal=1;startSize=26;fillColor=none;horizontalStack=0;resizeParent=1;resizeParentMax=0;resizeLast=0;collapsible=1;marginBottom=0;whiteSpace=wrap;html=1;" vertex="1" parent="1">
          <mxGeometry x="200" y="80" width="190" height="104" as="geometry" />
        </mxCell>
        <mxCell id="wZIgyZx5I7DeYKoyVxKW-48" value="+ void InsertQuarter()" style="text;strokeColor=none;fillColor=none;align=left;verticalAlign=top;spacingLeft=4;spacingRight=4;overflow=hidden;rotatable=0;points=[[0,0.5],[1,0.5]];portConstraint=eastwest;whiteSpace=wrap;html=1;" vertex="1" parent="wZIgyZx5I7DeYKoyVxKW-30">
          <mxGeometry y="26" width="190" height="26" as="geometry" />
        </mxCell>
        <mxCell id="wZIgyZx5I7DeYKoyVxKW-49" value="+ void EjectQuarter()" style="text;strokeColor=none;fillColor=none;align=left;verticalAlign=top;spacingLeft=4;spacingRight=4;overflow=hidden;rotatable=0;points=[[0,0.5],[1,0.5]];portConstraint=eastwest;whiteSpace=wrap;html=1;" vertex="1" parent="wZIgyZx5I7DeYKoyVxKW-30">
          <mxGeometry y="52" width="190" height="26" as="geometry" />
        </mxCell>
        <mxCell id="wZIgyZx5I7DeYKoyVxKW-50" value="+ void TurnCrank()" style="text;strokeColor=none;fillColor=none;align=left;verticalAlign=top;spacingLeft=4;spacingRight=4;overflow=hidden;rotatable=0;points=[[0,0.5],[1,0.5]];portConstraint=eastwest;whiteSpace=wrap;html=1;" vertex="1" parent="wZIgyZx5I7DeYKoyVxKW-30">
          <mxGeometry y="78" width="190" height="26" as="geometry" />
        </mxCell>
        <mxCell id="wZIgyZx5I7DeYKoyVxKW-34" value="&lt;b&gt;IGumballMachine&lt;/b&gt;" style="swimlane;fontStyle=0;childLayout=stackLayout;horizontal=1;startSize=26;fillColor=none;horizontalStack=0;resizeParent=1;resizeParentMax=0;resizeLast=0;collapsible=1;marginBottom=0;whiteSpace=wrap;html=1;" vertex="1" parent="1">
          <mxGeometry x="500" y="-208" width="210" height="208" as="geometry" />
        </mxCell>
        <mxCell id="wZIgyZx5I7DeYKoyVxKW-35" value="+ void SetSoldOutState()" style="text;strokeColor=none;fillColor=none;align=left;verticalAlign=top;spacingLeft=4;spacingRight=4;overflow=hidden;rotatable=0;points=[[0,0.5],[1,0.5]];portConstraint=eastwest;whiteSpace=wrap;html=1;" vertex="1" parent="wZIgyZx5I7DeYKoyVxKW-34">
          <mxGeometry y="26" width="210" height="26" as="geometry" />
        </mxCell>
        <mxCell id="wZIgyZx5I7DeYKoyVxKW-36" value="+ void SetSoldState()" style="text;strokeColor=none;fillColor=none;align=left;verticalAlign=top;spacingLeft=4;spacingRight=4;overflow=hidden;rotatable=0;points=[[0,0.5],[1,0.5]];portConstraint=eastwest;whiteSpace=wrap;html=1;" vertex="1" parent="wZIgyZx5I7DeYKoyVxKW-34">
          <mxGeometry y="52" width="210" height="26" as="geometry" />
        </mxCell>
        <mxCell id="wZIgyZx5I7DeYKoyVxKW-42" value="+ void SetHasQuarterState()" style="text;strokeColor=none;fillColor=none;align=left;verticalAlign=top;spacingLeft=4;spacingRight=4;overflow=hidden;rotatable=0;points=[[0,0.5],[1,0.5]];portConstraint=eastwest;whiteSpace=wrap;html=1;" vertex="1" parent="wZIgyZx5I7DeYKoyVxKW-34">
          <mxGeometry y="78" width="210" height="26" as="geometry" />
        </mxCell>
        <mxCell id="wZIgyZx5I7DeYKoyVxKW-37" value="+ void SetNoQuarterState()" style="text;strokeColor=none;fillColor=none;align=left;verticalAlign=top;spacingLeft=4;spacingRight=4;overflow=hidden;rotatable=0;points=[[0,0.5],[1,0.5]];portConstraint=eastwest;whiteSpace=wrap;html=1;" vertex="1" parent="wZIgyZx5I7DeYKoyVxKW-34">
          <mxGeometry y="104" width="210" height="26" as="geometry" />
        </mxCell>
        <mxCell id="wZIgyZx5I7DeYKoyVxKW-43" value="+ void Dispense()" style="text;strokeColor=none;fillColor=none;align=left;verticalAlign=top;spacingLeft=4;spacingRight=4;overflow=hidden;rotatable=0;points=[[0,0.5],[1,0.5]];portConstraint=eastwest;whiteSpace=wrap;html=1;" vertex="1" parent="wZIgyZx5I7DeYKoyVxKW-34">
          <mxGeometry y="130" width="210" height="26" as="geometry" />
        </mxCell>
        <mxCell id="wZIgyZx5I7DeYKoyVxKW-46" value="+ void ReleaseBall()" style="text;strokeColor=none;fillColor=none;align=left;verticalAlign=top;spacingLeft=4;spacingRight=4;overflow=hidden;rotatable=0;points=[[0,0.5],[1,0.5]];portConstraint=eastwest;whiteSpace=wrap;html=1;" vertex="1" parent="wZIgyZx5I7DeYKoyVxKW-34">
          <mxGeometry y="156" width="210" height="26" as="geometry" />
        </mxCell>
        <mxCell id="wZIgyZx5I7DeYKoyVxKW-44" value="+ void GetBallsCount()" style="text;strokeColor=none;fillColor=none;align=left;verticalAlign=top;spacingLeft=4;spacingRight=4;overflow=hidden;rotatable=0;points=[[0,0.5],[1,0.5]];portConstraint=eastwest;whiteSpace=wrap;html=1;" vertex="1" parent="wZIgyZx5I7DeYKoyVxKW-34">
          <mxGeometry y="182" width="210" height="26" as="geometry" />
        </mxCell>
        <mxCell id="wZIgyZx5I7DeYKoyVxKW-39" value="" style="endArrow=block;dashed=1;endFill=0;endSize=12;html=1;rounded=0;" edge="1" parent="1" source="wZIgyZx5I7DeYKoyVxKW-30" target="wZIgyZx5I7DeYKoyVxKW-34">
          <mxGeometry width="160" relative="1" as="geometry">
            <mxPoint x="360" y="370" as="sourcePoint" />
            <mxPoint x="520" y="370" as="targetPoint" />
          </mxGeometry>
        </mxCell>
        <mxCell id="wZIgyZx5I7DeYKoyVxKW-40" value="" style="endArrow=diamondThin;endFill=0;endSize=24;html=1;rounded=0;" edge="1" parent="1" source="wZIgyZx5I7DeYKoyVxKW-34" target="wZIgyZx5I7DeYKoyVxKW-21">
          <mxGeometry width="160" relative="1" as="geometry">
            <mxPoint x="360" y="370" as="sourcePoint" />
            <mxPoint x="520" y="370" as="targetPoint" />
            <Array as="points">
              <mxPoint x="610" y="570" />
            </Array>
          </mxGeometry>
        </mxCell>
        <mxCell id="wZIgyZx5I7DeYKoyVxKW-41" value="" style="endArrow=diamondThin;endFill=0;endSize=24;html=1;rounded=0;" edge="1" parent="1" source="wZIgyZx5I7DeYKoyVxKW-6" target="wZIgyZx5I7DeYKoyVxKW-30">
          <mxGeometry width="160" relative="1" as="geometry">
            <mxPoint x="642" y="350" as="sourcePoint" />
            <mxPoint x="482" y="570" as="targetPoint" />
          </mxGeometry>
        </mxCell>
        <mxCell id="wZIgyZx5I7DeYKoyVxKW-47" value="" style="endArrow=diamondThin;endFill=0;endSize=24;html=1;rounded=0;" edge="1" parent="1" source="wZIgyZx5I7DeYKoyVxKW-34" target="wZIgyZx5I7DeYKoyVxKW-20">
          <mxGeometry width="160" relative="1" as="geometry">
            <mxPoint x="601" y="278" as="sourcePoint" />
            <mxPoint x="534" y="561" as="targetPoint" />
            <Array as="points">
              <mxPoint x="610" y="640" />
            </Array>
          </mxGeometry>
        </mxCell>
        <mxCell id="wZIgyZx5I7DeYKoyVxKW-52" value="" style="endArrow=diamondThin;endFill=0;endSize=24;html=1;rounded=0;" edge="1" parent="1" source="wZIgyZx5I7DeYKoyVxKW-34" target="wZIgyZx5I7DeYKoyVxKW-19">
          <mxGeometry width="160" relative="1" as="geometry">
            <mxPoint x="602" y="10" as="sourcePoint" />
            <mxPoint x="532" y="561" as="targetPoint" />
            <Array as="points">
              <mxPoint x="610" y="690" />
            </Array>
          </mxGeometry>
        </mxCell>
        <mxCell id="wZIgyZx5I7DeYKoyVxKW-53" value="" style="endArrow=diamondThin;endFill=0;endSize=24;html=1;rounded=0;" edge="1" parent="1" source="wZIgyZx5I7DeYKoyVxKW-34" target="wZIgyZx5I7DeYKoyVxKW-15">
          <mxGeometry width="160" relative="1" as="geometry">
            <mxPoint x="456" y="100" as="sourcePoint" />
            <mxPoint x="70" y="788" as="targetPoint" />
            <Array as="points">
              <mxPoint x="610" y="727" />
            </Array>
          </mxGeometry>
        </mxCell>
      </root>
    </mxGraphModel>
  </diagram>
</mxfile>
